<svg xmlns="http://www.w3.org/2000/svg" width="1382" height="606" viewBox="0 0 1382 606" version="1.1">
	<path d="M 405.500 1.176 C 370.433 4.706, 333.985 18.165, 302.913 39.059 C 237.282 83.188, 202.427 146.923, 207.902 212.793 C 208.528 220.332, 209.894 230.354, 210.936 235.064 C 219.433 273.453, 246.725 301.939, 284.825 312.184 C 295.829 315.143, 320.180 315.838, 332.500 313.545 C 366.266 307.261, 395.525 288.332, 419.130 257.500 C 431.240 241.683, 441.995 221.812, 441.998 215.250 C 442.001 207.748, 439.925 209.684, 430.537 225.935 C 421.817 241.032, 414.226 251.503, 404.616 261.693 C 390.337 276.834, 374.819 286.721, 358.442 291.113 C 347.419 294.070, 329.647 294.088, 318.719 291.155 C 280.052 280.775, 251.510 243.677, 244.973 195.299 C 243.249 182.543, 244.189 158.511, 246.955 144.621 C 251.424 122.183, 260.396 100.193, 272.699 81.528 C 281.378 68.361, 299.018 50.666, 312 42.107 C 335.725 26.465, 359.855 18.711, 389 17.365 C 409.622 16.413, 431.005 19.279, 450.500 25.609 C 461.667 29.235, 482.788 39.669, 493.543 46.873 C 516.767 62.427, 537.914 84.016, 550.829 105.357 L 554.157 110.857 549.459 121.678 C 514.222 202.830, 477.169 270.388, 442.059 317.500 C 412.054 357.761, 373.477 396.150, 336.179 422.865 C 307.709 443.257, 281.663 455.912, 252.500 463.522 C 232.758 468.674, 219.252 470.392, 198.500 470.392 C 177.912 470.392, 164.735 468.712, 144.536 463.512 C 106.161 453.634, 71.774 433.479, 44.682 404.986 C 14.232 372.961, 0.148 331.731, 11.392 307.529 C 17.247 294.928, 25.236 288.953, 44.247 282.960 C 59.584 278.124, 65.170 275.485, 69.902 270.840 C 81.913 259.046, 80.320 237.796, 66.912 230.955 C 58.367 226.596, 47.459 226.684, 38.640 231.184 C 27.113 237.064, 15.486 253.481, 9.125 272.856 C 2.557 292.866, -1.435 335.271, 0.923 360 C 7.628 430.310, 42.810 472.988, 107.597 489.400 C 129.853 495.037, 141.539 496.390, 168.500 496.447 C 194.617 496.502, 202.145 495.807, 222.500 491.461 C 245.543 486.540, 268.942 478.139, 291.468 466.698 C 305.520 459.561, 336.933 438.783, 352.300 426.462 C 391.503 395.030, 433.933 347.403, 471.200 293 C 500.055 250.876, 536.593 186.040, 557 140.750 C 559.912 134.287, 562.633 129, 563.046 129 C 563.459 129, 565.911 134.040, 568.496 140.201 C 585.705 181.223, 595.642 218.382, 600.668 260.500 C 602.039 271.994, 602.456 282.980, 602.452 307.500 C 602.447 340.792, 601.520 352.974, 596.902 380.500 C 593.438 401.145, 592.056 406.103, 587.985 412.500 C 574.615 433.505, 557.584 470.949, 553.476 488.367 C 552.680 491.740, 552.023 497.305, 552.015 500.734 C 552.002 506.136, 552.367 507.378, 554.750 510.037 C 558.015 513.681, 562.861 514.955, 568.823 513.736 C 577.421 511.980, 584.095 502.006, 590.790 480.910 C 594.539 469.096, 597.032 457.829, 601.502 432.500 C 604.251 416.923, 605.949 410.178, 609.180 402 C 623.085 366.802, 651.180 314.354, 677.479 274.500 C 697.653 243.927, 717.383 219.629, 742.493 194.436 C 768.218 168.624, 790.001 150.692, 819 131.455 C 873.504 95.297, 926.141 73.221, 976.500 65.397 C 991.125 63.125, 1019.597 63.124, 1034 65.395 C 1064.499 70.204, 1091.458 81.233, 1114.166 98.193 C 1124.823 106.152, 1130.668 111.569, 1139.241 121.430 L 1145.266 128.360 1139.155 130.033 C 1131.013 132.261, 1126.059 135.710, 1121.731 142.161 C 1117.682 148.197, 1101 165.127, 1101 163.199 C 1101 162.508, 1102.443 159.143, 1104.208 155.721 C 1106.939 150.423, 1107.421 148.412, 1107.458 142.166 C 1107.497 135.345, 1107.303 134.662, 1104.694 132.416 C 1101.143 129.358, 1096.893 129.362, 1091.029 132.428 C 1088.237 133.888, 1076.777 144.528, 1060.529 160.743 C 1033.964 187.255, 1027.912 192.059, 1023.027 190.509 C 1018.544 189.086, 1021.028 183.666, 1040.393 152.616 L 1053.875 131 1046.948 131 L 1040.020 131 1036.298 136.607 C 1032.759 141.936, 1032.532 142.097, 1031.704 139.857 C 1029.646 134.288, 1028.258 132.395, 1024.980 130.687 C 1017.383 126.730, 1002.970 131.060, 989.295 141.407 C 985.882 143.989, 976.882 152.673, 969.295 160.705 C 961.708 168.736, 952.227 177.924, 948.226 181.121 C 937.627 189.591, 930.087 191.219, 929.191 185.231 C 928.710 182.013, 932.613 175.186, 954.091 141.679 L 974.077 110.500 987.277 110 C 998.820 109.563, 1000.519 109.280, 1000.812 107.750 C 1001.116 106.161, 1000.031 106, 989.043 106 L 976.939 106 980.436 100.533 C 984.538 94.120, 989 85.514, 989 84.014 C 989 83.435, 987.987 83.171, 986.750 83.426 C 985.513 83.682, 982.458 84.154, 979.962 84.475 C 975.438 85.057, 975.405 85.090, 968.962 95.520 L 962.500 105.980 956.950 105.990 C 951.866 105.999, 949 107.156, 949 109.200 C 949 109.640, 951.025 110, 953.500 110 C 956.032 110, 958 110.468, 958 111.071 C 958 113.141, 948.437 125.669, 934.282 142.142 C 917.663 161.482, 913.646 165.325, 906.640 168.587 C 902.237 170.637, 896 171.829, 896 170.621 C 896 170.413, 897.575 167.627, 899.499 164.431 C 904.560 156.026, 907.001 148.795, 906.996 142.212 C 906.992 135.532, 904.717 131.046, 899.759 127.940 C 897.075 126.258, 895.164 125.951, 888.924 126.199 C 882.378 126.459, 880.204 127.067, 872.919 130.677 C 859.985 137.087, 840.945 155.727, 843.743 159.241 C 844.294 159.933, 844.968 164.616, 845.241 169.648 C 845.817 180.262, 848.271 185.909, 854 189.800 C 856.890 191.763, 858.461 192.110, 863.014 191.792 C 870.296 191.283, 876.159 188.310, 885.354 180.465 C 892.648 174.241, 893.133 174, 898.343 174 C 901.320 174, 905.385 173.319, 907.377 172.487 C 909.368 171.655, 914.905 167.387, 919.681 163.003 C 924.457 158.619, 928.514 155.180, 928.696 155.362 C 928.877 155.544, 927.394 159.249, 925.399 163.596 C 919.530 176.385, 919.754 187.657, 925.945 190.970 C 928.988 192.599, 937.128 192.131, 941.500 190.076 C 943.700 189.042, 951.125 182.973, 958 176.590 L 970.500 164.983 971.081 173.742 C 971.964 187.039, 975.992 192.908, 984.818 193.757 C 991.372 194.386, 996.706 191.855, 1005.169 184.099 L 1011.838 177.987 1012.419 180.993 C 1012.739 182.647, 1013.248 185.293, 1013.552 186.874 C 1013.855 188.455, 1015.242 190.818, 1016.633 192.124 C 1018.547 193.922, 1020.224 194.477, 1023.526 194.405 C 1031.283 194.237, 1037.262 189.513, 1061.839 164.138 C 1074.284 151.289, 1086.424 139.428, 1088.818 137.781 C 1091.212 136.134, 1094.932 134.551, 1097.085 134.262 C 1100.776 133.767, 1101 133.887, 1101 136.357 C 1101 138.935, 1099.650 141.055, 1075.344 176.648 C 1069.655 184.980, 1065 192.292, 1065 192.898 C 1065 193.604, 1067.608 193.983, 1072.250 193.953 L 1079.500 193.906 1086.792 185.203 C 1096.874 173.171, 1112.780 156.447, 1113.479 157.145 C 1113.796 157.463, 1113.593 158.939, 1113.028 160.426 C 1112.463 161.913, 1112 165.171, 1112 167.665 C 1112 171.489, 1112.533 172.733, 1115.400 175.600 C 1118.342 178.542, 1119.453 178.997, 1123.650 178.978 C 1128.995 178.954, 1135.048 176.582, 1140.700 172.296 C 1143.838 169.917, 1144.263 169.798, 1143.553 171.500 C 1142.076 175.041, 1140 183.367, 1140 185.750 C 1140 187.023, 1140.640 189.595, 1141.421 191.466 C 1144.633 199.152, 1154.865 199.992, 1164.923 193.395 C 1167.990 191.383, 1175.311 184.911, 1181.191 179.013 L 1191.882 168.288 1191.742 176.394 C 1191.665 180.852, 1192.152 186.113, 1192.824 188.085 C 1194.812 193.917, 1201.426 199, 1207.028 199 C 1211.764 199, 1220.058 194.682, 1226.291 188.970 C 1229.875 185.687, 1233.075 183, 1233.403 183 C 1233.731 183, 1234.007 184.912, 1234.015 187.250 C 1234.034 192.695, 1235.698 195.919, 1239.692 198.252 C 1243.994 200.765, 1248.559 199.810, 1256 194.841 C 1263.457 189.861, 1282.493 170.093, 1281.137 168.737 C 1280.502 168.102, 1277.249 170.536, 1271.830 175.700 C 1256.715 190.107, 1253.370 192.948, 1249.722 194.472 C 1244.429 196.683, 1242.668 195.632, 1243.238 190.600 C 1243.584 187.545, 1247.564 180.155, 1258.851 161.608 C 1267.183 147.917, 1274 136.105, 1274 135.358 C 1274 133.845, 1272.421 133.706, 1265.696 134.628 C 1261.496 135.204, 1260.806 135.719, 1257.437 140.793 L 1253.760 146.330 1252.130 141.454 C 1249.218 132.742, 1241.594 130.643, 1228.587 134.971 C 1217.621 138.620, 1210.714 144.035, 1186.500 167.965 C 1168.114 186.136, 1162.573 191.044, 1158.879 192.434 C 1148.827 196.217, 1146.565 192.501, 1152.513 181.977 C 1154.499 178.464, 1161.946 166.331, 1169.062 155.015 C 1176.178 143.698, 1182 133.666, 1182 132.720 C 1182 131.285, 1181.008 131, 1176.013 131 C 1170.092 131, 1169.996 131.046, 1167.440 135.094 C 1166.019 137.346, 1164.567 138.900, 1164.214 138.547 C 1163.861 138.194, 1162.798 133.314, 1161.852 127.703 C 1156.066 93.397, 1137.985 64.657, 1113 50.055 C 1077.931 29.559, 1025.168 26.544, 965.500 41.625 C 890.066 60.692, 809.338 109.760, 741.041 178.057 C 707.960 211.138, 680.635 247.143, 650.574 297.261 C 637.909 318.376, 628.213 336.950, 616.923 361.726 C 612.355 371.750, 608.491 379.824, 608.336 379.669 C 608.181 379.514, 610.512 365.463, 613.516 348.444 C 623.676 290.891, 627.056 244.951, 623.967 206.395 C 620.714 165.798, 608.744 125.929, 588.932 89.706 L 581.935 76.913 593.605 49.706 C 603.566 26.485, 605.347 21.532, 605.762 15.894 C 606.209 9.817, 606.060 9.156, 603.902 7.644 C 599.972 4.891, 596.202 5.560, 592.037 9.750 C 588.705 13.102, 587.434 16.128, 580.071 38.250 C 575.540 51.863, 571.473 63, 571.032 63 C 570.591 63, 569.502 61.889, 568.613 60.532 C 565.744 56.154, 546.801 40.025, 536.090 32.840 C 498.661 7.735, 452.214 -3.528, 405.500 1.176 M 1201.380 91.447 C 1200.243 92.242, 1196.347 97.755, 1192.720 103.697 C 1186.250 114.297, 1182.236 118.936, 1174.750 124.467 C 1170.468 127.631, 1170.012 129.004, 1173.250 128.990 C 1178.985 128.965, 1194.609 119.350, 1202.310 111.107 C 1209.720 103.174, 1212.116 95.224, 1208.171 91.655 C 1205.922 89.619, 1204.070 89.562, 1201.380 91.447 M 886.050 131.745 C 877.630 135.891, 862.885 155.113, 858.420 167.764 C 855.666 175.565, 855.329 182.597, 857.557 185.777 C 861.320 191.150, 873.240 186.946, 883.592 176.593 C 893.875 166.310, 900.336 154.499, 901.611 143.655 C 902.925 132.472, 895.740 126.972, 886.050 131.745 M 1014.286 134.109 C 1010.133 135.310, 1000.056 144.662, 994.450 152.518 C 984.359 166.659, 979.236 183.289, 983.515 188.016 C 987.615 192.548, 995.248 189.074, 1006.580 177.519 C 1015.914 168.002, 1023.318 157.370, 1026.074 149.529 C 1028.686 142.098, 1028.549 138.458, 1025.545 135.455 C 1022.944 132.854, 1019.892 132.489, 1014.286 134.109 M 1141.022 139.089 C 1138.662 141.887, 1133.857 146.436, 1130.345 149.196 C 1121.120 156.446, 1116.287 165.884, 1119.083 171.191 C 1120.698 174.257, 1121.908 174.966, 1125.554 174.985 C 1136.375 175.039, 1155.738 155.071, 1153.505 146.161 C 1152.005 140.175, 1148.719 134, 1147.033 134 C 1146.087 134, 1143.382 136.290, 1141.022 139.089 M 1231.385 139.952 C 1225.480 143.339, 1219.576 149.645, 1213.293 159.273 C 1206.915 169.047, 1202.950 178.085, 1202.307 184.313 C 1201.827 188.964, 1202.052 190.052, 1203.873 191.873 C 1205.043 193.043, 1207.147 194, 1208.550 194 C 1214.632 194, 1225.501 185.939, 1234.437 174.802 C 1247.400 158.645, 1252.285 144.435, 1246.686 139.174 C 1243.341 136.032, 1237.722 136.318, 1231.385 139.952 M 822.113 206.485 C 812.215 208.725, 806.070 210.912, 799 214.712 C 781.937 223.884, 769.464 238.882, 763.832 257 C 761.842 263.401, 761.500 266.624, 761.500 279 C 761.500 291.423, 761.837 294.574, 763.849 301 C 767.926 314.018, 775.852 328.594, 788.131 345.656 C 791.359 350.141, 794 354.018, 794 354.270 C 794 354.522, 791.862 355.529, 789.250 356.509 C 778.378 360.584, 757.721 371.257, 747.473 378.095 C 735.047 386.385, 720.549 400.163, 714.041 409.863 C 704.490 424.099, 700.018 438.829, 700.007 456.090 C 699.995 474.161, 705.309 489.572, 716.410 503.662 C 730.410 521.432, 750.597 531.923, 776.813 535.052 C 787.720 536.353, 802.417 535.124, 814.123 531.931 C 838.573 525.261, 862.452 505.573, 873.755 482.763 C 880.384 469.385, 883.094 458.675, 883.692 443.500 C 884.118 432.658, 883.843 428.758, 882.033 420.008 C 878.012 400.566, 869.806 384.282, 853.242 362.875 C 848.096 356.224, 844.023 350.684, 844.192 350.564 C 844.362 350.444, 850.350 347.746, 857.500 344.567 C 873.007 337.674, 879.414 333.908, 887.709 326.812 C 899.834 316.438, 908.974 302.225, 912.667 288 C 914.727 280.063, 914.957 264.571, 913.126 257 C 912.394 253.975, 909.985 247.675, 907.771 243 C 904.450 235.984, 902.242 233.010, 895.124 225.966 C 888.295 219.208, 884.731 216.567, 878 213.276 C 873.325 210.991, 866.800 208.378, 863.500 207.469 C 855.065 205.147, 830.599 204.565, 822.113 206.485 M 1068.500 212.468 C 1049.934 216.519, 1033.465 226.428, 1015.378 244.433 C 979.244 280.402, 955.617 329.857, 946.310 389 C 943.773 405.120, 943.778 449.911, 946.318 464.500 C 953.307 504.644, 971.309 529.338, 1000 538.137 C 1005.797 539.915, 1009.884 540.437, 1018 540.437 C 1029.575 540.437, 1038.542 538.279, 1049.086 532.956 C 1067.125 523.851, 1089.336 501.044, 1105.302 475.233 C 1129.126 436.719, 1146.215 381.253, 1150.049 329.995 C 1152.597 295.934, 1148.304 269.990, 1136.247 246.596 C 1129.920 234.318, 1118.774 222.891, 1108 217.634 C 1095.281 211.427, 1081.519 209.628, 1068.500 212.468 M 825.666 217.022 C 808.041 223.241, 797.650 237.384, 795.549 258.017 C 794.361 269.678, 798.579 286.132, 806.312 300 C 809.963 306.549, 834.969 340, 836.213 340 C 837.689 340, 845.214 335.910, 851.500 331.692 C 854.800 329.478, 860.539 324.554, 864.254 320.751 C 878.723 305.937, 886.211 287.006, 886.304 265 C 886.399 242.376, 878.460 227.291, 862.238 219.272 C 854.907 215.649, 854.150 215.489, 843.053 215.232 C 833.477 215.010, 830.502 215.316, 825.666 217.022 M 1077.232 221.032 C 1065.751 223.372, 1052.005 234.669, 1041.590 250.321 C 1014.087 291.656, 985.993 382.164, 979.944 448.922 C 978.482 465.055, 979.239 490.879, 981.434 499.760 C 982.285 503.203, 984.349 508.729, 986.020 512.040 C 991.727 523.345, 999.750 530.013, 1010.165 532.104 C 1014.606 532.996, 1016.820 532.906, 1021.803 531.629 C 1025.187 530.762, 1029.756 528.917, 1031.955 527.528 C 1042.455 520.900, 1055.126 504.035, 1065.029 483.508 C 1075.896 460.983, 1088.708 425.792, 1098.425 391.774 C 1106.376 363.937, 1109.593 349.664, 1114.262 321.500 C 1118.076 298.495, 1118.410 294.984, 1118.447 277.500 C 1118.479 262.308, 1118.130 257.197, 1116.710 252 C 1114.127 242.554, 1109.829 234.055, 1105.387 229.613 C 1098.317 222.543, 1086.895 219.061, 1077.232 221.032 M 792.557 367.607 C 776.708 375.687, 760.766 389.620, 751.124 403.817 C 745.225 412.504, 738.545 426.835, 735.425 437.500 C 731.863 449.676, 731.001 467.412, 733.439 478.371 C 737.947 498.634, 752.639 515.411, 770.783 521.015 C 778.702 523.461, 792.994 523.674, 801.448 521.472 C 810.898 519.010, 820.795 513.231, 828 505.968 C 840.274 493.594, 846.009 480.358, 846.790 462.606 C 847.078 456.039, 846.768 448.889, 846.008 444.606 C 844.465 435.909, 839.949 422.842, 835.281 413.567 C 828.642 400.379, 803.223 363.963, 800.705 364.034 C 800.042 364.053, 796.376 365.661, 792.557 367.607 M 1305.500 388.911 C 1298.251 390.703, 1299.090 387.808, 1292.103 435.153 C 1288.584 458.994, 1285.506 479.044, 1285.262 479.708 C 1285.013 480.385, 1283.421 479.064, 1281.645 476.708 C 1272.082 464.027, 1253.230 465.215, 1240.346 479.312 C 1237.186 482.770, 1232.990 489.292, 1229.469 496.220 C 1221.969 510.978, 1216.412 519.256, 1209.479 526 L 1203.826 531.500 1204.492 520.500 C 1204.859 514.450, 1205.801 503.200, 1206.586 495.500 C 1207.370 487.800, 1208.302 478.433, 1208.656 474.683 L 1209.300 467.867 1202.900 468.577 C 1199.380 468.968, 1196.185 469.776, 1195.799 470.373 C 1195.414 470.971, 1194.812 473.156, 1194.461 475.230 C 1194.111 477.303, 1193.526 478.983, 1193.162 478.962 C 1192.798 478.941, 1191.313 477.206, 1189.861 475.105 C 1188.322 472.877, 1185.266 470.339, 1182.527 469.013 C 1178.648 467.135, 1176.725 466.828, 1171.480 467.250 C 1159.614 468.202, 1150.249 474.887, 1141.998 488.295 C 1137.119 496.223, 1135.757 501.343, 1137.939 503.550 C 1138.456 504.072, 1140.784 508.311, 1143.111 512.970 C 1148.544 523.840, 1154.807 530.271, 1162.059 532.425 C 1164.976 533.291, 1168.519 533.990, 1169.932 533.978 C 1174.319 533.941, 1180.298 530.510, 1185.250 525.189 L 1190 520.086 1190 530.013 L 1190 539.941 1179.736 547.864 C 1166.576 558.024, 1160.623 564.445, 1156.809 572.595 C 1149.313 588.613, 1155.680 603.876, 1170.592 605.636 C 1180.931 606.857, 1188.865 602.126, 1193.938 591.714 C 1198.262 582.842, 1199.775 575.775, 1201.452 556.614 L 1202.931 539.728 1210.775 532.040 C 1217.775 525.180, 1229 510.322, 1229 507.916 C 1229 507.412, 1229.450 507, 1230 507 C 1230.550 507, 1231 507.563, 1231.001 508.250 C 1231.003 511.228, 1237.286 522.392, 1241.491 526.887 C 1247.520 533.333, 1254.585 536.446, 1261.361 535.644 C 1267.579 534.907, 1272.874 531.456, 1277.696 524.997 C 1279.748 522.249, 1281.690 520, 1282.013 520 C 1282.335 520, 1283.168 521.575, 1283.864 523.500 C 1285.484 527.980, 1289.414 532.646, 1293.231 534.619 C 1297.024 536.581, 1303.923 536.608, 1307.659 534.676 C 1312.815 532.010, 1315.811 528.028, 1324.616 512.139 C 1329.382 503.537, 1333.391 496.365, 1333.525 496.199 C 1333.658 496.034, 1333.708 501.234, 1333.634 507.754 C 1333.506 519.101, 1333.630 519.864, 1336.523 525.536 C 1339.827 532.014, 1344.326 535.372, 1351.275 536.547 C 1356.807 537.481, 1364.943 533.278, 1370.010 526.868 C 1374.467 521.230, 1382.264 506.235, 1381.435 504.895 C 1380.220 502.930, 1378.862 504.385, 1373.452 513.451 C 1366.785 524.623, 1359.508 532, 1355.154 532 C 1353.541 532, 1351.270 531.212, 1350.108 530.250 C 1347.628 528.197, 1345.994 520.705, 1346.705 514.644 C 1347.770 505.559, 1359.420 445.847, 1365.366 419 C 1368.837 403.325, 1371.315 390.088, 1370.872 389.583 C 1369.646 388.188, 1359.149 390.852, 1358.092 392.828 C 1357.597 393.753, 1354.876 405.308, 1352.045 418.505 C 1345.689 448.141, 1342.804 459.793, 1338.802 472 C 1335.683 481.510, 1320.396 512.657, 1314.990 520.514 C 1311.038 526.258, 1305.407 531, 1302.538 531 C 1299.270 531, 1296.251 526.856, 1295.404 521.211 C 1294.538 515.437, 1297.968 486.939, 1306.080 432.500 C 1309.358 410.500, 1312.144 391.600, 1312.270 390.500 C 1312.531 388.233, 1310.330 387.717, 1305.500 388.911 M 1171.684 472.473 C 1169.585 473.208, 1167.064 474.538, 1166.081 475.427 C 1163.176 478.055, 1159.152 486.246, 1157.395 493.103 C 1154.543 504.236, 1157.180 517.868, 1163.477 524.545 C 1166.161 527.391, 1167.457 528, 1170.826 528 C 1174.194 528, 1175.602 527.338, 1178.804 524.250 C 1187.217 516.135, 1191.650 503.841, 1190.701 491.255 C 1189.618 476.889, 1181.621 468.991, 1171.684 472.473 M 1259.586 474.934 C 1249.692 481.457, 1244.243 502.352, 1248.605 517.041 C 1250.780 524.364, 1256.335 530, 1261.379 530 C 1266.292 530, 1271.709 524.985, 1276.363 516.128 C 1284.905 499.874, 1284.510 484.045, 1275.362 476.013 C 1272.580 473.570, 1271.038 473.001, 1267.215 473.007 C 1264.252 473.011, 1261.417 473.727, 1259.586 474.934 M 1183.954 550.390 C 1165.021 565.370, 1156.684 582.339, 1162.414 594.234 C 1164.356 598.266, 1169.407 602, 1172.918 602 C 1178.685 602, 1183.589 596.355, 1186.819 586 C 1187.872 582.621, 1190.521 547.188, 1189.775 546.442 C 1189.574 546.240, 1186.954 548.017, 1183.954 550.390" stroke="none" fill="#141C16" fill-rule="evenodd"/>
</svg>