<?xml version="1.0" encoding="UTF-8" standalone="no"?>
<svg
   xmlns:dc="http://purl.org/dc/elements/1.1/"
   xmlns:cc="http://creativecommons.org/ns#"
   xmlns:rdf="http://www.w3.org/1999/02/22-rdf-syntax-ns#"
   xmlns:svg="http://www.w3.org/2000/svg"
   xmlns="http://www.w3.org/2000/svg"
   xmlns:sodipodi="http://sodipodi.sourceforge.net/DTD/sodipodi-0.dtd"
   xmlns:inkscape="http://www.inkscape.org/namespaces/inkscape"
   viewBox="0 0 790.95 556.985"
   height="556.98499"
   width="790.95001"
   xml:space="preserve"
   id="svg2"
   version="1.1"
   sodipodi:docname="Logo_INFONAVIT.svg"
   inkscape:version="1.0.2 (e86c870879, 2021-01-15)"><sodipodi:namedview
     pagecolor="#ffffff"
     bordercolor="#666666"
     borderopacity="1"
     objecttolerance="10"
     gridtolerance="10"
     guidetolerance="10"
     inkscape:pageopacity="0"
     inkscape:pageshadow="2"
     inkscape:window-width="1920"
     inkscape:window-height="986"
     id="namedview8"
     showgrid="false"
     inkscape:zoom="0.8179725"
     inkscape:cx="289.99953"
     inkscape:cy="284.42743"
     inkscape:window-x="-11"
     inkscape:window-y="-11"
     inkscape:window-maximized="1"
     inkscape:current-layer="svg2"
     inkscape:document-rotation="0" /><metadata
     id="metadata8"><rdf:RDF><cc:Work
         rdf:about=""><dc:format>image/svg+xml</dc:format><dc:type
           rdf:resource="http://purl.org/dc/dcmitype/StillImage" /><dc:title></dc:title></cc:Work></rdf:RDF></metadata><defs
     id="defs6" /><path
     id="path14"
     style="opacity:1;fill:#d92933;fill-opacity:1;fill-rule:evenodd;stroke:none;stroke-width:0.470653"
     d="m 197.80962,0 c -37.88406,0 -68.60202,30.70182 -68.60202,68.580722 0,37.875208 30.71796,68.580598 68.60202,68.580598 37.89178,0 68.60613,-30.70539 68.60613,-68.580598 C 266.41575,30.70182 235.7014,0 197.80962,0 Z m 395.49529,0 c -37.86739,0 -68.55427,30.70182 -68.55427,68.580722 0,37.875208 30.68688,68.580598 68.55427,68.580598 37.86604,0 68.5628,-30.70539 68.5628,-68.580598 C 661.86771,30.70182 631.17095,0 593.30491,0 Z M 0,2.49602 V 69.566245 L 174.3007,243.81001 v 206.53844 h 47.43214 V 243.81001 L 395.62335,69.975133 569.39848,243.81001 v 206.53844 h 47.40321 V 243.81001 L 790.985,69.566245 V 2.49602 L 593.10147,200.45267 395.62335,2.90514 198.01158,200.45267 Z m 0,88.101417 v 67.070183 l 104.78156,104.75682 v 187.92401 h 47.44037 v -197.75061 -9.81622 l -6.9453,-6.94944 z m 790.985,0 -145.18217,145.234743 -6.93722,6.94944 v 207.56683 h 47.40714 V 262.42444 L 790.985,157.66762 Z m -395.36165,2.887699 -142.3934,142.347044 -6.94118,6.94944 v 9.81622 197.75061 h 47.43215 V 262.42444 L 395.62335,160.55518 497.4537,262.42444 v 187.92401 h 47.41154 V 242.78162 l -6.9433,-6.94944 z M 294.59065,475.30427 c -8.24197,0 -15.65016,1.05208 -22.23117,3.14711 -6.58038,2.10447 -12.13252,4.99875 -16.65433,8.69712 -4.52333,3.68955 -7.99195,8.00918 -10.40148,12.97566 -2.41169,4.95572 -3.61486,10.33521 -3.61486,16.12471 0,5.65213 1.20317,10.92086 3.61486,15.80522 2.40953,4.88435 5.87815,9.14305 10.40148,12.76137 4.52181,3.61914 10.07395,6.46744 16.65433,8.52806 6.58101,2.06743 13.9892,3.09148 22.23117,3.09148 8.33717,0 15.77575,-1.02405 22.3054,-3.09148 6.53353,-2.06062 12.05893,-4.90892 16.58009,-8.52806 4.52011,-3.61832 7.98809,-7.87702 10.40149,-12.76137 2.41166,-4.88436 3.62113,-10.1531 3.62113,-15.80522 0,-5.7895 -1.20947,-11.16899 -3.62113,-16.12471 -2.4134,-4.96648 -5.88138,-9.28611 -10.40149,-12.97566 -4.52116,-3.69837 -10.04655,-6.59265 -16.58009,-8.69712 -6.52965,-2.09503 -13.96823,-3.14711 -22.3054,-3.14711 z M 0.85739,477.15501 v 77.42926 h 23.71499 v -77.42926 z m 44.44999,0 v 77.42926 h 22.23529 v -51.84073 h 0.30088 l 44.7777,51.84073 H 136.291 v -77.42926 h -22.23939 v 51.94787 h -0.3669 L 68.80397,477.15501 Z m 111.65888,0 v 77.42926 h 23.71911 V 522.5368 h 45.04567 v -13.15294 h -45.04567 v -17.96721 h 51.9704 v -14.26164 z m 206.58702,0 v 77.42926 h 22.23744 v -51.84073 h 0.30088 l 44.77771,51.84073 h 23.66563 V 477.15501 H 432.2975 v 51.94787 h -0.37296 l -44.87663,-51.94787 z m 139.58441,0 -38.61968,77.42926 h 26.40253 l 26.23761,-54.44366 h 0.3236 l 25.9058,54.44366 h 26.24376 L 531.9927,477.15501 Z m 45.07035,0 39.05034,77.42926 h 29.92226 l 40.05635,-77.42926 H 629.8538 l -27.21065,54.43543 h -0.34417 l -26.86624,-54.43543 z m 118.22532,0 v 77.42926 h 23.71677 v -77.42926 z m 35.93434,0 v 14.26164 h 32.23308 v 63.16762 h 23.7208 v -63.16762 h 32.23299 v -14.26164 z m -407.77705,12.4068 c 5.31575,0 9.82707,0.74266 13.53819,2.22997 3.71326,1.48019 6.72234,3.47978 9.02892,5.97666 2.30593,2.50353 3.983,5.34705 5.03894,8.53846 1.05485,3.19158 1.58079,6.48525 1.58079,9.88634 0,3.2667 -0.52594,6.43607 -1.58079,9.51318 -1.05594,3.07928 -2.73301,5.84875 -5.03894,8.32004 -2.30658,2.46749 -5.31566,4.42981 -9.02892,5.91693 -3.71112,1.48711 -8.22244,2.22996 -13.53819,2.22996 -5.31877,0 -9.82879,-0.74285 -13.53819,-2.22996 -3.71304,-1.48712 -6.7232,-3.44944 -9.02892,-5.91693 -2.30594,-2.47129 -3.98191,-5.24076 -5.03484,-8.32004 -1.0557,-3.07711 -1.5849,-6.24648 -1.5849,-9.51318 0,-3.40109 0.5292,-6.69476 1.5849,-9.88634 1.05293,-3.19141 2.7289,-6.03493 5.03484,-8.53846 2.30572,-2.49688 5.31588,-4.49647 9.02892,-5.97666 3.7094,-1.48731 8.21942,-2.22997 13.53819,-2.22997 z" /></svg>
